<?xml version="1.0" encoding="UTF-8"?>
<!DOCTYPE svg PUBLIC "-//W3C//DTD SVG 1.1//EN" "http://www.w3.org/Graphics/SVG/1.1/DTD/svg11.dtd">
<!-- Creator: CorelDRAW 2017 -->
<svg xmlns="http://www.w3.org/2000/svg" xml:space="preserve" width="215.9mm" height="279.4mm" version="1.1" style="shape-rendering:geometricPrecision; text-rendering:geometricPrecision; image-rendering:optimizeQuality; fill-rule:evenodd; clip-rule:evenodd"
viewBox="0 0 21590 27940"
 xmlns:xlink="http://www.w3.org/1999/xlink">
 <defs>
  <style type="text/css">
   <![CDATA[
    .fil0 {fill:none}
    .fil1 {fill:#201E1E}
    .fil3 {fill:#4EF298}
    .fil2 {fill:#EE4552}
   ]]>
  </style>
   <clipPath id="id0">
    <path d="M8021.99 19862.85c-2891.51,653.51 -2044.68,5008.61 910.19,4478.12 307.53,-55.17 614.2,-193.77 777.69,-304.11 2240,-1510.92 673.15,-4707.89 -1687.88,-4174.01z"/>
   </clipPath>
   <clipPath id="id1">
    <path d="M6952.02 15441.41c-732.63,-1793.18 -1339.29,-2653.72 -1493.8,-5369.71 -367.6,-6465.64 3272.33,-9079.24 4545.55,-1932.82 457.68,2568.95 135.81,3785.8 -394.39,6431.26l936.11 130.17c652.14,-2063.43 1988.07,-4338.25 3255.89,-5275.74 1043.11,-771.03 4557.88,-1718.73 6334.26,-337.18 1129.18,878.41 490.79,1896.81 -643.32,2285.43 -2882.75,987.61 -2606.02,1298.05 -4544.44,3218.36 -846.94,838.94 -1422.02,991.12 -2274.35,1677.71 210.19,814.25 1183.06,2076.85 197.18,3955.91 -1789.95,-1105.58 -3255.77,-1924.73 -5751.01,-1564.24 -413.81,59.93 -611.62,147.71 -951.8,206.2 -1819.9,313.71 83.88,-2904.92 784.12,-3425.35z"/>
   </clipPath>
 </defs>
 <g id="Capa_x0020_1">
  <metadata id="CorelCorpID_0Corel-Layer"/>
  <circle class="fil0" cx="10795" cy="13970" r="10795"/>
  <path class="fil0" d="M8021.99 19862.85c-2891.51,653.51 -2044.68,5008.61 910.19,4478.12 307.53,-55.17 614.2,-193.77 777.69,-304.11 2240,-1510.92 673.15,-4707.89 -1687.88,-4174.01z"/>
  <path id="1" class="fil1" d="M8021.99 19862.85c-2891.51,653.51 -2044.68,5008.61 910.19,4478.12 307.53,-55.17 614.2,-193.77 777.69,-304.11 2240,-1510.92 673.15,-4707.89 -1687.88,-4174.01z"/>
  <g style="clip-path:url(#id0)">
   <g id="_1765335942832">
    <path id="2" class="fil2" d="M8514.47 25417.82c3502.67,407.13 6056.13,3196.71 5703.51,6230.53 -352.62,3033.82 -3477.87,5163.14 -6980.27,4756.1 -3502.4,-407.04 -6055.94,-3196.35 -5703.23,-6230.44 352.35,-3033.91 3477.6,-5163.23 6979.99,-4756.19z"/>
   </g>
  </g>
  <path class="fil0" d="M6952.02 15441.41c-732.63,-1793.18 -1339.29,-2653.72 -1493.8,-5369.71 -367.6,-6465.64 3272.33,-9079.24 4545.55,-1932.82 457.68,2568.95 135.81,3785.8 -394.39,6431.26l936.11 130.17c652.14,-2063.43 1988.07,-4338.25 3255.89,-5275.74 1043.11,-771.03 4557.88,-1718.73 6334.26,-337.18 1129.18,878.41 490.79,1896.81 -643.32,2285.43 -2882.75,987.61 -2606.02,1298.05 -4544.44,3218.36 -846.94,838.94 -1422.02,991.12 -2274.35,1677.71 210.19,814.25 1183.06,2076.85 197.18,3955.91 -1789.95,-1105.58 -3255.77,-1924.73 -5751.01,-1564.24 -413.81,59.93 -611.62,147.71 -951.8,206.2 -1819.9,313.71 83.88,-2904.92 784.12,-3425.35z"/>
  <path id="1" class="fil1" d="M6952.02 15441.41c-732.63,-1793.18 -1339.29,-2653.72 -1493.8,-5369.71 -367.6,-6465.64 3272.33,-9079.24 4545.55,-1932.82 457.68,2568.95 135.81,3785.8 -394.39,6431.26l936.11 130.17c652.14,-2063.43 1988.07,-4338.25 3255.89,-5275.74 1043.11,-771.03 4557.88,-1718.73 6334.26,-337.18 1129.18,878.41 490.79,1896.81 -643.32,2285.43 -2882.75,987.61 -2606.02,1298.05 -4544.44,3218.36 -846.94,838.94 -1422.02,991.12 -2274.35,1677.71 210.19,814.25 1183.06,2076.85 197.18,3955.91 -1789.95,-1105.58 -3255.77,-1924.73 -5751.01,-1564.24 -413.81,59.93 -611.62,147.71 -951.8,206.2 -1819.9,313.71 83.88,-2904.92 784.12,-3425.35z"/>
  <g style="clip-path:url(#id1)">
   <g id="_1765335943600">
    <path id="2" class="fil3" d="M-54.15 10801.24c2880.52,334.87 4944.2,2941.19 4609.33,5821.71 -334.62,2880.39 -2941.12,4944.01 -5821.71,4609.33 -2880.33,-334.81 -4943.95,-2941.31 -4609.33,-5821.71 334.81,-2880.33 2941.38,-4944.14 5821.71,-4609.33z"/>
   </g>
  </g>
 </g>
</svg>
